 http://img593.imageshack.us/img593/5998/hallpass1.jpg

Country.......: USA
Genre.........: Comedy
Date release..: 23.02.2011 [World]
Director......: Bobby Farrelly, Peter Farrelly
Writers.......: Pete Jones, Peter Farrelly
Duration......: 105 min.
More..........: http://www.imdb.com/title/tt0480687
Trailer.......: http://www.imdb.com/video/imdb/vi811440665
Trailer.......:

Pilot :
A married man is granted the opportunity to have an affair by his wife. Joined in the fun by his best pal, things get a little out of control when both wives start engaging in extramarital activities as well. 

Cats :
Owen Wilson   	 ...  	Rick
Jason Sudeikis 	... 	Fred
Jenna Fischer 	... 	Maggie
Christina Applegate 	... 	Grace
Nicky Whelan 	... 	Leigh
Richard Jenkins 	... 	Coakley
Stephen Merchant 	... 	Gary
Larry Joe Campbell 	... 	Hog Head
Bruce Thomas 	... 	Rick Coleman
Tyler Hoechlin 	... 	Gerry
Derek Waters 	... 	Brent
Alexandra Daddario 	... 	Paige
Rob Moran 	... 	Ed Long
Lauren Bowles 	... 	Britney
Christa Campbell 	... 	Emma 

Data Technical :
!!! SAMPLE !!!
Audio.....: English
Subtitles.: None
Format                           : AVI
Format/Info                      : Audio Video Interleave
Format profile                   : OpenDML
File size                        : 1.24 GiB
Duration                         : 24mn 2s
Overall bit rate                 : 7 375 Kbps
Video
ID                               : 0
Format                           : MPEG-4 Visual
Format profile                   : Simple@L3
Format settings, BVOP            : No
Format settings, QPel            : No
Format settings, GMC             : No warppoints
Format settings, Matrix          : Default (H.263)
Codec ID                         : XVID
Codec ID/Hint                    : XviD
Duration                         : 24mn 2s
Bit rate                         : 1 548 Kbps
Width                            : 720 pixels
Height                           : 480 pixels
Display aspect ratio             : 3:2
Frame rate                       : 29.970 fps
Original frame rate              : 29.000 fps
Standard                         : NTSC
Color space                      : YUV
Chroma subsampling               : 4:2:0
Bit depth                        : 8 bits
Scan type                        : Progressive
Bits/(Pixel*Frame)               : 0.149
Stream size                      : 266 MiB (21%)
Writing library                  : XviD 1.2.1 (UTC 2008-12-04)
Audio
ID                               : 1
Format                           : MPEG Audio
Format version                   : Version 1
Format profile                   : Layer 3
Mode                             : Joint stereo
Mode extension                   : MS Stereo
Codec ID                         : 55
Codec ID/Hint                    : MP3
Duration                         : 19mn 29s
Bit rate mode                    : Constant
Bit rate                         : 128 Kbps
Channel(s)                       : 2 channels
Sampling rate                    : 44.1 KHz
Stream size                      : 17.8 MiB (1%)
Alignment                        : Aligned on interleaves
Interleave, duration             : 32 ms (0.97 video frame)
Writing library                  : LAME3.98.2

Screen : 
http://img339.imageshack.us/img339/6378/hallpass2011s1.jpg 
http://img848.imageshack.us/img848/3990/hallpass2011s2.jpg 
http://img841.imageshack.us/img841/8559/hallpass2011s3.jpg 
http://img190.imageshack.us/img190/8093/hallpass2011s4.jpg 
http://img705.imageshack.us/img705/7402/hallpass2011s5.jpg